<svg width="491" height="456" viewBox="0 0 491 456" fill="none" xmlns="http://www.w3.org/2000/svg">
<path d="M5.84109 364.55C9.2325 358.415 13.953 353.634 20.019 350.206C26.0795 346.782 32.9506 345.067 40.6269 345.067C50.0402 345.067 58.0971 347.554 64.7972 352.523C71.4975 357.491 75.9807 364.269 78.2362 372.852H57.0052C55.4225 369.538 53.1836 367.018 50.2829 365.283C47.3877 363.552 44.09 362.686 40.4008 362.686C34.4561 362.686 29.6363 364.759 25.9471 368.898C22.2578 373.04 20.4104 378.573 20.4104 385.5C20.4104 392.426 22.2578 397.963 25.9471 402.101C29.6363 406.243 34.456 408.313 40.4008 408.313C44.09 408.313 47.3877 407.448 50.2829 405.716C53.1836 403.985 55.4224 401.464 57.0052 398.15H78.2362C75.9808 406.733 71.4975 413.492 64.7972 418.422C58.097 423.354 50.0402 425.819 40.6269 425.819C32.9506 425.819 26.0795 424.107 20.019 420.68C13.953 417.255 9.2325 412.494 5.84109 406.394C2.45512 400.295 0.762207 393.33 0.762207 385.5C0.762207 377.669 2.45512 370.688 5.84109 364.55Z" fill="white"/>
<path d="M89.9272 376.577C92.3757 371.685 95.7065 367.919 99.9252 365.283C104.138 362.65 108.842 361.332 114.042 361.332C118.482 361.332 122.38 362.234 125.728 364.043C129.081 365.849 131.656 368.22 133.465 371.156V362.234H152.777V425.254H133.465V416.332C131.584 419.268 128.965 421.639 125.617 423.448C122.264 425.254 118.366 426.159 113.927 426.159C108.803 426.159 104.138 424.821 99.925 422.149C95.7063 419.478 92.3756 415.673 89.927 410.743C87.4785 405.81 86.2544 400.108 86.2544 393.631C86.2544 387.154 87.4788 381.474 89.9272 376.577ZM129.456 382.337C126.781 379.552 123.527 378.16 119.689 378.16C115.846 378.16 112.586 379.533 109.917 382.282C107.243 385.031 105.908 388.814 105.908 393.631C105.908 398.45 107.243 402.272 109.917 405.095C112.587 407.919 115.846 409.331 119.689 409.331C123.527 409.331 126.781 407.938 129.456 405.151C132.13 402.366 133.465 398.563 133.465 393.744C133.465 388.927 132.13 385.125 129.456 382.337Z" fill="white"/>
<path d="M201.901 408.878V425.254H192.074C185.076 425.254 179.611 423.542 175.701 420.114C171.785 416.69 169.828 411.101 169.828 403.345V378.273H162.146V362.234H169.828V346.875H189.14V362.234H201.79V378.273H189.14V403.571C189.14 405.454 189.592 406.808 190.496 407.635C191.395 408.465 192.901 408.879 195.013 408.879L201.901 408.878Z" fill="white"/>
<path d="M212.461 376.577C214.909 371.685 218.24 367.919 222.459 365.283C226.672 362.65 231.376 361.332 236.576 361.332C241.015 361.332 244.914 362.234 248.261 364.043C251.614 365.849 254.19 368.22 255.998 371.156V362.234H275.31V425.254H255.998V416.332C254.118 419.268 251.498 421.639 248.151 423.448C244.798 425.254 240.899 426.159 236.46 426.159C231.337 426.159 226.672 424.821 222.459 422.149C218.24 419.478 214.909 415.673 212.461 410.743C210.012 405.81 208.788 400.108 208.788 393.631C208.788 387.154 210.012 381.474 212.461 376.577ZM251.989 382.337C249.315 379.552 246.061 378.16 242.223 378.16C238.379 378.16 235.12 379.533 232.451 382.282C229.777 385.031 228.442 388.814 228.442 393.631C228.442 398.45 229.777 402.272 232.451 405.095C235.12 407.919 238.379 409.331 242.223 409.331C246.061 409.331 249.315 407.938 251.989 405.151C254.664 402.366 255.998 398.563 255.998 393.744C255.998 388.927 254.664 385.125 251.989 382.337Z" fill="white"/>
<path d="M308.629 341.681V425.254H289.317V341.681H308.629Z" fill="white"/>
<path d="M387.002 362.234L347.474 455.182H326.695L341.149 423.109L315.517 362.234H337.085L351.654 401.649L366.113 362.234H387.002Z" fill="white"/>
<path d="M403.598 423.335C399.307 421.452 395.921 418.873 393.434 415.598C390.953 412.322 389.558 408.652 389.254 404.585H408.34C408.566 406.772 409.587 408.539 411.39 409.893C413.199 411.25 415.421 411.928 418.057 411.928C420.467 411.928 422.325 411.456 423.649 410.516C424.961 409.576 425.623 408.352 425.623 406.846C425.623 405.037 424.68 403.703 422.799 402.834C420.913 401.971 417.869 401.012 413.651 399.956C409.134 398.903 405.368 397.791 402.357 396.625C399.346 395.459 396.749 393.614 394.565 391.091C392.381 388.568 391.289 385.16 391.289 380.87C391.289 377.255 392.287 373.963 394.284 370.988C396.274 368.013 399.214 365.661 403.09 363.929C406.967 362.198 411.577 361.332 416.926 361.332C424.834 361.332 431.06 363.29 435.615 367.205C440.17 371.12 442.79 376.315 443.468 382.789H425.623C425.32 380.605 424.36 378.877 422.744 377.594C421.123 376.315 418.994 375.675 416.364 375.675C414.103 375.675 412.371 376.108 411.164 376.974C409.961 377.84 409.36 379.025 409.36 380.531C409.36 382.337 410.32 383.694 412.239 384.595C414.158 385.499 417.153 386.404 421.217 387.306C425.888 388.513 429.687 389.699 432.626 390.865C435.56 392.032 438.141 393.915 440.363 396.512C442.58 399.109 443.727 402.592 443.804 406.957C443.804 410.649 442.768 413.944 440.7 416.839C438.626 419.74 435.654 422.017 431.777 423.674C427.9 425.329 423.4 426.158 418.283 426.158C412.785 426.158 407.894 425.218 403.598 423.335Z" fill="white"/>
<path d="M490.789 408.878V425.254H480.962C473.964 425.254 468.499 423.542 464.589 420.114C460.674 416.69 458.716 411.101 458.716 403.345V378.273H451.034V362.234H458.716V346.875H478.028V362.234H490.678V378.273H478.028V403.571C478.028 405.454 478.48 406.808 479.385 407.635C480.283 408.465 481.789 408.879 483.901 408.879L490.789 408.878Z" fill="white"/>
<path d="M163.276 290.671C162.152 292.794 160.343 294.523 157.856 295.855C155.374 297.187 152.187 297.854 148.304 297.854H139.762V316.962H132.042V269.868H148.304C151.916 269.868 154.977 270.488 157.486 271.732C159.99 272.972 161.865 274.657 163.111 276.777C164.352 278.903 164.975 281.274 164.975 283.894C164.975 286.29 164.407 288.548 163.276 290.671ZM154.878 289.552C156.323 288.22 157.045 286.334 157.045 283.894C157.045 278.743 154.128 276.168 148.305 276.168H139.763V291.551H148.305C151.238 291.551 153.428 290.884 154.878 289.552Z" fill="white"/>
<path d="M184.728 280.607C186.597 279.546 188.825 279.014 191.401 279.014V287.01H189.437C186.41 287.01 184.116 287.779 182.555 289.315C181 290.851 180.217 293.517 180.217 297.311V316.962H172.497V279.626H180.217V285.046C181.347 283.149 182.853 281.669 184.728 280.607Z" fill="white"/>
<path d="M205.292 315.167C202.447 313.562 200.208 311.304 198.581 308.39C196.954 305.475 196.144 302.1 196.144 298.259C196.144 294.465 196.976 291.099 198.653 288.162C200.324 285.226 202.601 282.968 205.496 281.388C208.386 279.805 211.618 279.014 215.185 279.014C218.753 279.014 221.985 279.805 224.875 281.388C227.764 282.968 230.047 285.226 231.718 288.162C233.389 291.099 234.227 294.465 234.227 298.259C234.227 302.053 233.367 305.42 231.652 308.357C229.932 311.293 227.593 313.562 224.638 315.167C221.676 316.769 218.412 317.571 214.844 317.571C211.32 317.571 208.138 316.769 205.292 315.167ZM220.435 309.44C222.172 308.492 223.59 307.069 224.67 305.172C225.757 303.275 226.297 300.97 226.297 298.259C226.297 295.549 225.779 293.258 224.737 291.383C223.7 289.508 222.321 288.096 220.606 287.148C218.886 286.196 217.038 285.722 215.047 285.722C213.062 285.722 211.22 286.196 209.527 287.148C207.834 288.096 206.489 289.508 205.496 291.383C204.498 293.258 204.002 295.549 204.002 298.259C204.002 302.279 205.033 305.387 207.084 307.576C209.141 309.768 211.728 310.863 214.843 310.863C216.834 310.863 218.698 310.389 220.435 309.44Z" fill="white"/>
<path d="M249.739 324.279C249.739 327.938 248.83 330.594 246.999 332.242C245.168 333.891 242.515 334.716 239.036 334.716H235.038V328.211H237.679C239.262 328.211 240.381 327.905 241.032 327.296C241.688 326.686 242.019 325.68 242.019 324.279V279.625H249.739V324.279ZM242.422 273.253C241.473 272.305 240.999 271.133 240.999 269.732C240.999 268.331 241.473 267.157 242.422 266.208C243.37 265.26 244.545 264.783 245.946 264.783C247.302 264.783 248.455 265.26 249.403 266.208C250.352 267.157 250.826 268.331 250.826 269.732C250.826 271.133 250.352 272.305 249.403 273.253C248.455 274.204 247.302 274.679 245.946 274.679C244.545 274.679 243.37 274.204 242.422 273.253Z" fill="white"/>
<path d="M293.988 301.174H265.461C265.687 304.154 266.79 306.551 268.781 308.357C270.766 310.163 273.209 311.067 276.099 311.067C280.251 311.067 283.191 309.327 284.906 305.85H293.244C292.113 309.283 290.067 312.096 287.111 314.285C284.15 316.477 280.477 317.572 276.099 317.572C272.531 317.572 269.333 316.769 266.509 315.167C263.686 313.562 261.474 311.304 259.87 308.39C258.265 305.475 257.465 302.1 257.465 298.26C257.465 294.421 258.243 291.044 259.804 288.129C261.359 285.215 263.548 282.968 266.377 281.388C269.195 279.805 272.437 279.014 276.099 279.014C279.623 279.014 282.761 279.783 285.518 281.319C288.27 282.855 290.42 285.011 291.953 287.79C293.492 290.569 294.259 293.765 294.259 297.38C294.259 298.781 294.17 300.043 293.988 301.174ZM286.196 294.94C286.152 292.094 285.132 289.811 283.147 288.096C281.156 286.378 278.696 285.521 275.757 285.521C273.094 285.521 270.811 286.367 268.914 288.06C267.017 289.756 265.886 292.047 265.528 294.94H286.196Z" fill="white"/>
<path d="M301.753 288.129C303.308 285.215 305.464 282.968 308.221 281.388C310.979 279.805 314.139 279.014 317.707 279.014C322.223 279.014 325.962 280.089 328.923 282.234C331.885 284.379 333.881 287.44 334.923 291.416H326.585C325.907 289.563 324.826 288.118 323.331 287.079C321.843 286.039 319.968 285.521 317.707 285.521C314.547 285.521 312.027 286.638 310.152 288.874C308.277 291.11 307.339 294.239 307.339 298.26C307.339 302.28 308.277 305.42 310.152 307.678C312.027 309.939 314.547 311.067 317.707 311.067C322.179 311.067 325.14 309.101 326.585 305.172H334.923C333.837 308.966 331.802 311.983 328.824 314.219C325.84 316.455 322.135 317.572 317.706 317.572C314.139 317.572 310.979 316.769 308.221 315.167C305.464 313.563 303.308 311.304 301.753 308.39C300.192 305.476 299.415 302.101 299.415 298.26C299.415 294.422 300.192 291.044 301.753 288.129Z" fill="white"/>
<path d="M351.792 285.926V306.595C351.792 307.995 352.117 308.999 352.774 309.611C353.43 310.221 354.544 310.524 356.127 310.524H360.869V316.962H354.776C351.296 316.962 348.627 316.149 346.78 314.522C344.927 312.895 344 310.254 344 306.595V285.926H339.594V279.626H344V270.342H351.792V279.626H360.869V285.926L351.792 285.926Z" fill="white"/>
<path d="M271.448 210.109C311.497 200.505 342.766 168.917 352.274 128.462H140.297C154.194 187.593 212.913 224.148 271.448 210.109Z" fill="white"/>
<path d="M246.634 0.793946C188.098 0.789186 140.642 47.7585 140.637 105.703V113.698H156.951V105.703C156.867 59.6516 192.372 21.1835 238.712 17.1197C288.044 12.7934 331.579 48.8742 335.949 97.7082H319.554C315.393 60.992 284.055 33.216 246.731 33.1627C206.201 33.1046 173.297 65.5821 173.238 105.703V113.698H222.342V105.703C222.344 92.3277 233.297 81.4854 246.809 81.4831C260.324 81.4808 271.282 92.3244 271.285 105.703V113.698H287.437V105.703C287.571 86.2927 273.724 69.5391 254.477 65.8257C232.383 61.5627 210.981 75.837 206.674 97.7084H190.145C194.211 69.979 218.196 49.3902 246.502 49.3294C278.022 49.2618 303.629 74.5012 303.698 105.703V113.698H352.613V105.703C352.609 47.7652 305.163 0.79857 246.634 0.793946Z" fill="white"/>
</svg>
