<svg width="204" height="180" viewBox="0 0 204 180" fill="none" xmlns="http://www.w3.org/2000/svg">
<circle cx="101.803" cy="108.984" r="13.8206" fill="white" stroke="white"/>
<path d="M138.75 142.527C146.313 132.401 150.903 119.756 150.903 107.629C150.903 81.2424 129.175 59.8522 102.371 59.8522C75.5671 59.8522 53.8384 81.2424 53.8384 107.629C53.8384 119.756 58.4283 132.401 65.9913 142.527" stroke="white" stroke-width="21" stroke-linecap="round"/>
<path d="M193.287 98.4617C193.287 50.1579 152.477 11 102.135 11C51.7935 11 10.9834 50.1579 10.9834 98.4617" stroke="white" stroke-width="21" stroke-linecap="round"/>
<path d="M173.096 168.972C179.264 162.222 188.074 147.22 189.675 139.553" stroke="white" stroke-width="21" stroke-linecap="round"/>
<path d="M14.9479 140.158C17.7421 148.865 26.3863 163.964 32.2454 169.161" stroke="white" stroke-width="21" stroke-linecap="round"/>
</svg>
